<?xml version="1.0" encoding="UTF-8"?>
<svg id="Calque_1" data-name="Calque 1" xmlns="http://www.w3.org/2000/svg" viewBox="0 0 55.5 38">
  <defs>
    <style>
      .cls-1, .cls-2 {
        stroke: #000;
        stroke-miterlimit: 10;
      }

      .cls-2 {
        fill: #fff;
      }
    </style>
  </defs>
  <polygon class="cls-1" points="3 3.5 26.69 3.5 26.69 22.21 3 22.5 3 3.5"/>
  <path class="cls-1" d="m31.34.5h7.8c.48,0,.92.25,1.16.66l3.31,5.67c.24.41.68.66,1.16.66h7.68c.36,0,.7.14.95.39l1.22,1.22c.25.25.39.59.39.95v17.17c0,.57-.46,1.03-1.03,1.03h-.02c-.28,0-.55-.11-.74-.31l-5.81-6.03c-.25-.26-.6-.41-.96-.41h-7.75c-.36,0-.7.14-.96.4l-5.84,5.95c-.25.26-.6.4-.96.4h-.93v-.83l-5.65.06c-.75,0-1.35-.59-1.35-1.34h0c0-.74.6-1.34,1.34-1.34h4.32c.74,0,1.34-.6,1.34-1.34V1.84c0-.74.6-1.34,1.34-1.34Z"/>
  <polygon class="cls-2" points="32 3.5 32 9.45 42.59 9.45 39.49 3.5 32 3.5"/>
  <polygon class="cls-1" points=".5 25.65 5.35 25.65 2.92 28.37 .5 28.37 .5 25.65"/>
  <ellipse class="cls-1" cx="13" cy="32" rx="7" ry="5.5"/>
  <ellipse class="cls-1" cx="43" cy="32" rx="7" ry="5.5"/>
  <ellipse class="cls-2" cx="42.87" cy="32.24" rx="4.13" ry="3.26"/>
  <ellipse class="cls-2" cx="12.74" cy="32.11" rx="4.13" ry="3.26"/>
</svg>